Input #0, mov,mp4,m4a,3gp,3g2,mj2, from '/home/hbattu/projects/huberman-gpt/huberman-audio/mp3/tmpqowq3eiq.mp4':
  Metadata:
    major_brand     : dash
    minor_version   : 0
    compatible_brands: iso6mp41
    creation_time   : 2022-03-06T04:42:34.000000Z
  Duration: 01:52:14.41, start: 0.000000, bitrate: 129 kb/s
    Stream #0:0(und): Audio: aac (LC) (mp4a / 0x6134706D), 44100 Hz, stereo, fltp, 0 kb/s (default)
    Metadata:
      creation_time   : 2022-03-06T04:42:34.000000Z
      handler_name    : ISO Media file produced by Google Inc.
Stream mapping:
  Stream #0:0 -> #0:0 (aac (native) -> mp3 (libmp3lame))
Press [q] to stop, [?] for help
[graph_0_in_0_0 @ 0x55bfef874f80] tb:1/44100 samplefmt:fltp samplerate:44100 chlayout:0x3
Output #0, mp3, to '../huberman-audio/mp3/15R2pMqU2ok.mp3':
  Metadata:
    major_brand     : dash
    minor_version   : 0
    compatible_brands: iso6mp41
    TSSE            : Lavf58.29.100
    Stream #0:0(und): Audio: mp3 (libmp3lame), 44100 Hz, stereo, fltp, delay 1105 (default)
    Metadata:
      creation_time   : 2022-03-06T04:42:34.000000Z
      handler_name    : ISO Media file produced by Google Inc.
      encoder         : Lavc58.54.100 libmp3lame
No more output streams to write to, finishing.
size=  105226kB time=01:52:14.42 bitrate= 128.0kbits/s speed=  79x    
[AVIOContext @ 0x55bfef766900] Statistics: 0 seeks, 171 writeouts
video:0kB audio:105226kB subtitle:0kB other streams:0kB global headers:0kB muxing overhead: 0.000321%
Input file #0 (/home/hbattu/projects/huberman-gpt/huberman-audio/mp3/tmpqowq3eiq.mp4):
  Input stream #0:0 (audio): 290027 packets read (107750620 bytes); 290027 frames decoded (296987648 samples); 
  Total: 290027 packets (107750620 bytes) demuxed
Output file #0 (../huberman-audio/mp3/15R2pMqU2ok.mp3):
  Output stream #0:0 (audio): 257802 frames encoded (296987648 samples); 257803 packets muxed (107751131 bytes); 
  Total: 257803 packets (107751131 bytes) muxed
[AVIOContext @ 0x55bfef790300] Statistics: 2 seeks, 413 writeouts
[AVIOContext @ 0x55bfef76f880] Statistics: 108989692 bytes read, 0 seeks
